<mxfile host="app.diagrams.net" modified="2023-09-08T06:35:24.405Z" agent="Mozilla/5.0 (Windows NT 10.0; Win64; x64) AppleWebKit/537.36 (KHTML, like Gecko) Chrome/116.0.0.0 Safari/537.36" version="21.7.2" etag="-jhqHF7Idk8W3vpt7dfR" type="github">
  <diagram name="Page-1" id="r-QtPoo7S6RP-shgvjKO">
    <mxGraphModel>
      <root>
        <mxCell id="0" />
        <mxCell id="1" parent="0" />
      </root>
    </mxGraphModel>
  </diagram>
</mxfile>
